ffmpeg version 4.0.4-0ubuntu1 Copyright (c) 2000-2019 the FFmpeg developers
  built with gcc 8 (Ubuntu 8.2.0-7ubuntu1)
  configuration: --prefix=/usr --extra-version=0ubuntu1 --toolchain=hardened --libdir=/usr/lib/x86_64-linux-gnu --incdir=/usr/include/x86_64-linux-gnu --arch=amd64 --enable-gpl --disable-stripping --enable-avresample --disable-filter=resample --enable-avisynth --enable-gnutls --enable-ladspa --enable-libaom --enable-libass --enable-libbluray --enable-libbs2b --enable-libcaca --enable-libcdio --enable-libcodec2 --enable-libflite --enable-libfontconfig --enable-libfreetype --enable-libfribidi --enable-libgme --enable-libgsm --enable-libjack --enable-libmp3lame --enable-libmysofa --enable-libopenjpeg --enable-libopenmpt --enable-libopus --enable-libpulse --enable-librsvg --enable-librubberband --enable-libshine --enable-libsnappy --enable-libsoxr --enable-libspeex --enable-libssh --enable-libtheora --enable-libtwolame --enable-libvorbis --enable-libvpx --enable-libwavpack --enable-libwebp --enable-libx265 --enable-libxml2 --enable-libxvid --enable-libzmq --enable-libzvbi --enable-lv2 --enable-omx --enable-openal --enable-opengl --enable-sdl2 --enable-libdc1394 --enable-libdrm --enable-libiec61883 --enable-chromaprint --enable-frei0r --enable-libopencv --enable-libx264 --enable-shared
  libavutil      56. 14.100 / 56. 14.100
  libavcodec     58. 18.100 / 58. 18.100
  libavformat    58. 12.100 / 58. 12.100
  libavdevice    58.  3.100 / 58.  3.100
  libavfilter     7. 16.100 /  7. 16.100
  libavresample   4.  0.  0 /  4.  0.  0
  libswscale      5.  1.100 /  5.  1.100
  libswresample   3.  1.100 /  3.  1.100
  libpostproc    55.  1.100 / 55.  1.100
Input #0, rtsp, from 'rtsp://admin:xiriox3000@10.1.1.73:554':
  Metadata:
    title           : Media Presentation
  Duration: N/A, start: 0.373333, bitrate: N/A
    Stream #0:0: Video: h264 (Main), yuvj420p(pc, bt709, progressive), 1280x720, 15 fps, 25 tbr, 90k tbn, 30 tbc
Output #0, mp4, to '/home/xirioxinf/Ext1/2020-01-03/CAM3//CAM3_admin123_admin_2020-01-03_13-36-13.mp4':
  Metadata:
    title           : Media Presentation
    encoder         : Lavf58.12.100
    Stream #0:0: Video: h264 (Main) (avc1 / 0x31637661), yuvj420p(pc, bt709, progressive), 1280x720, q=2-31, 15 fps, 25 tbr, 90k tbn, 90k tbc
Stream mapping:
  Stream #0:0 -> #0:0 (copy)
Press [q] to stop, [?] for help
[mp4 @ 0x5653147cc600] Non-monotonous DTS in output stream 0:0; previous: 0, current: -26400; changing to 1. This may result in incorrect timestamps in the output file.
[mp4 @ 0x5653147cc600] Non-monotonous DTS in output stream 0:0; previous: 1, current: -19200; changing to 2. This may result in incorrect timestamps in the output file.
[mp4 @ 0x5653147cc600] Non-monotonous DTS in output stream 0:0; previous: 2, current: -15600; changing to 3. This may result in incorrect timestamps in the output file.
[mp4 @ 0x5653147cc600] Non-monotonous DTS in output stream 0:0; previous: 3, current: -8400; changing to 4. This may result in incorrect timestamps in the output file.
[mp4 @ 0x5653147cc600] Non-monotonous DTS in output stream 0:0; previous: 4, current: -4800; changing to 5. This may result in incorrect timestamps in the output file.
[mp4 @ 0x5653147cc600] Non-monotonous DTS in output stream 0:0; previous: 5, current: -1200; changing to 6. This may result in incorrect timestamps in the output file.
frame=   37 fps=0.0 q=-1.0 size=     256kB time=00:00:01.98 bitrate=1055.8kbits/s speed=3.95x    frame=   45 fps= 42 q=-1.0 size=     256kB time=00:00:02.54 bitrate= 823.6kbits/s speed= 2.4x    frame=   53 fps= 33 q=-1.0 size=     256kB time=00:00:03.06 bitrate= 684.0kbits/s speed=1.94x    frame=   61 fps= 29 q=-1.0 size=     256kB time=00:00:03.58 bitrate= 584.8kbits/s speed=1.71x    frame=   69 fps= 26 q=-1.0 size=     512kB time=00:00:04.14 bitrate=1011.6kbits/s speed=1.56x    frame=   77 fps= 24 q=-1.0 size=     512kB time=00:00:04.66 bitrate= 898.9kbits/s speed=1.47x    frame=   85 fps= 23 q=-1.0 size=     512kB time=00:00:05.18 bitrate= 808.7kbits/s speed= 1.4x    frame=   93 fps= 22 q=-1.0 size=     512kB time=00:00:05.74 bitrate= 729.9kbits/s speed=1.35x    frame=  101 fps= 21 q=-1.0 size=     768kB time=00:00:06.26 bitrate=1004.0kbits/s speed=1.31x    frame=  109 fps= 21 q=-1.0 size=     768kB time=00:00:06.78 bitrate= 927.2kbits/s speed=1.28x    frame=  117 fps= 20 q=-1.0 size=     768kB time=00:00:07.34 bitrate= 856.5kbits/s speed=1.25x    frame=  125 fps= 20 q=-1.0 size=     768kB time=00:00:07.86 bitrate= 799.9kbits/s speed=1.23x    frame=  133 fps= 19 q=-1.0 size=    1024kB time=00:00:08.38 bitrate=1000.4kbits/s speed=1.22x    frame=  141 fps= 19 q=-1.0 size=    1024kB time=00:00:08.94 bitrate= 937.8kbits/s speed= 1.2x    frame=  149 fps= 19 q=-1.0 size=    1024kB time=00:00:09.46 bitrate= 886.3kbits/s speed=1.19x    frame=  157 fps= 18 q=-1.0 size=    1024kB time=00:00:09.98 bitrate= 840.1kbits/s speed=1.17x    frame=  165 fps= 18 q=-1.0 size=    1280kB time=00:00:10.54 bitrate= 994.4kbits/s speed=1.16x    frame=  173 fps= 18 q=-1.0 size=    1280kB time=00:00:11.06 bitrate= 947.6kbits/s speed=1.16x    frame=  181 fps= 18 q=-1.0 size=    1280kB time=00:00:11.58 bitrate= 905.1kbits/s speed=1.15x    frame=  189 fps= 18 q=-1.0 size=    1280kB time=00:00:12.14 bitrate= 863.4kbits/s speed=1.14x    frame=  197 fps= 18 q=-1.0 size=    1280kB time=00:00:12.66 bitrate= 827.9kbits/s speed=1.13x    frame=  205 fps= 18 q=-1.0 size=    1536kB time=00:00:13.18 bitrate= 954.3kbits/s speed=1.13x    frame=  213 fps= 17 q=-1.0 size=    1536kB time=00:00:13.74 bitrate= 915.4kbits/s speed=1.12x    frame=  221 fps= 17 q=-1.0 size=    1536kB time=00:00:14.26 bitrate= 882.1kbits/s speed=1.12x    frame=  229 fps= 17 q=-1.0 size=    1536kB time=00:00:14.78 bitrate= 851.0kbits/s speed=1.11x    frame=  237 fps= 17 q=-1.0 size=    1792kB time=00:00:15.34 bitrate= 956.7kbits/s speed=1.11x    frame=  245 fps= 17 q=-1.0 size=    1792kB time=00:00:15.86 bitrate= 925.3kbits/s speed= 1.1x    frame=  253 fps= 17 q=-1.0 size=    1792kB time=00:00:16.38 bitrate= 895.9kbits/s speed= 1.1x    frame=  261 fps= 17 q=-1.0 size=    1792kB time=00:00:16.94 bitrate= 866.4kbits/s speed= 1.1x    frame=  269 fps= 17 q=-1.0 size=    2048kB time=00:00:17.46 bitrate= 960.7kbits/s speed=1.09x    frame=  277 fps= 17 q=-1.0 size=    2048kB time=00:00:17.98 bitrate= 932.9kbits/s speed=1.09x    frame=  285 fps= 17 q=-1.0 size=    2048kB time=00:00:18.54 bitrate= 904.7kbits/s speed=1.09x    frame=  293 fps= 17 q=-1.0 size=    2048kB time=00:00:19.06 bitrate= 880.0kbits/s speed=1.09x    frame=  301 fps= 17 q=-1.0 size=    2304kB time=00:00:19.58 bitrate= 963.8kbits/s speed=1.08x    frame=  309 fps= 17 q=-1.0 size=    2304kB time=00:00:20.14 bitrate= 937.0kbits/s speed=1.08x    frame=  317 fps= 17 q=-1.0 size=    2304kB time=00:00:20.66 bitrate= 913.4kbits/s speed=1.08x    frame=  325 fps= 17 q=-1.0 size=    2304kB time=00:00:21.18 bitrate= 891.0kbits/s speed=1.08x    frame=  333 fps= 16 q=-1.0 size=    2304kB time=00:00:21.74 bitrate= 868.0kbits/s speed=1.07x    frame=  341 fps= 16 q=-1.0 size=    2560kB time=00:00:22.26 bitrate= 941.9kbits/s speed=1.07x    frame=  349 fps= 16 q=-1.0 size=    2560kB time=00:00:22.78 bitrate= 920.4kbits/s speed=1.07x    frame=  357 fps= 16 q=-1.0 size=    2560kB time=00:00:23.34 bitrate= 898.4kbits/s speed=1.07x    frame=  365 fps= 16 q=-1.0 size=    2560kB time=00:00:23.86 bitrate= 878.8kbits/s speed=1.07x    frame=  373 fps= 16 q=-1.0 size=    2816kB time=00:00:24.38 bitrate= 946.0kbits/s speed=1.07x    frame=  381 fps= 16 q=-1.0 size=    2816kB time=00:00:24.94 bitrate= 924.8kbits/s speed=1.06x    frame=  389 fps= 16 q=-1.0 size=    2816kB time=00:00:25.46 bitrate= 905.9kbits/s speed=1.06x    frame=  397 fps= 16 q=-1.0 size=    2816kB time=00:00:25.98 bitrate= 887.8kbits/s speed=1.06x    frame=  405 fps= 16 q=-1.0 size=    3072kB time=00:00:26.54 bitrate= 948.1kbits/s speed=1.06x    frame=  413 fps= 16 q=-1.0 size=    3072kB time=00:00:27.06 bitrate= 929.9kbits/s speed=1.06x    frame=  421 fps= 16 q=-1.0 size=    3072kB time=00:00:27.58 bitrate= 912.4kbits/s speed=1.06x    frame=  429 fps= 16 q=-1.0 size=    3072kB time=00:00:28.14 bitrate= 894.2kbits/s speed=1.06x    frame=  437 fps= 16 q=-1.0 size=    3328kB time=00:00:28.66 bitrate= 951.1kbits/s speed=1.06x    frame=  445 fps= 16 q=-1.0 size=    3328kB time=00:00:29.18 bitrate= 934.2kbits/s speed=1.05x    frame=  453 fps= 16 q=-1.0 size=    3328kB time=00:00:29.74 bitrate= 916.6kbits/s speed=1.05x    frame=  461 fps= 16 q=-1.0 size=    3328kB time=00:00:30.26 bitrate= 900.9kbits/s speed=1.05x    frame=  469 fps= 16 q=-1.0 size=    3584kB time=00:00:30.78 bitrate= 953.8kbits/s speed=1.05x    frame=  477 fps= 16 q=-1.0 size=    3584kB time=00:00:31.34 bitrate= 936.7kbits/s speed=1.05x    frame=  485 fps= 16 q=-1.0 size=    3584kB time=00:00:31.86 bitrate= 921.4kbits/s speed=1.05x    frame=  493 fps= 16 q=-1.0 size=    3584kB time=00:00:32.38 bitrate= 906.6kbits/s speed=1.05x    frame=  501 fps= 16 q=-1.0 size=    3584kB time=00:00:32.94 bitrate= 891.2kbits/s speed=1.05x    frame=  509 fps= 16 q=-1.0 size=    3840kB time=00:00:33.46 bitrate= 940.1kbits/s speed=1.05x    frame=  517 fps= 16 q=-1.0 size=    3840kB time=00:00:33.98 bitrate= 925.7kbits/s speed=1.05x    frame=  525 fps= 16 q=-1.0 size=    3840kB time=00:00:34.54 bitrate= 910.7kbits/s speed=1.05x    frame=  533 fps= 16 q=-1.0 size=    3840kB time=00:00:35.06 bitrate= 897.2kbits/s speed=1.04x    frame=  541 fps= 16 q=-1.0 size=    4096kB time=00:00:35.58 bitrate= 943.0kbits/s speed=1.04x    frame=  549 fps= 16 q=-1.0 size=    4096kB time=00:00:36.14 bitrate= 928.4kbits/s speed=1.04x    frame=  557 fps= 16 q=-1.0 size=    4096kB time=00:00:36.66 bitrate= 915.2kbits/s speed=1.04x    frame=  565 fps= 16 q=-1.0 size=    4352kB time=00:00:37.18 bitrate= 958.8kbits/s speed=1.04x    frame=  573 fps= 16 q=-1.0 size=    4352kB time=00:00:37.74 bitrate= 944.6kbits/s speed=1.04x    frame=  581 fps= 16 q=-1.0 size=    4352kB time=00:00:38.26 bitrate= 931.8kbits/s speed=1.04x    frame=  589 fps= 16 q=-1.0 size=    4352kB time=00:00:38.78 bitrate= 919.3kbits/s speed=1.04x    frame=  597 fps= 16 q=-1.0 size=    4352kB time=00:00:39.34 bitrate= 906.2kbits/s speed=1.04x    frame=  605 fps= 16 q=-1.0 size=    4608kB time=00:00:39.86 bitrate= 947.0kbits/s speed=1.04x    frame=  613 fps= 16 q=-1.0 size=    4608kB time=00:00:40.38 bitrate= 934.8kbits/s speed=1.04x    frame=  621 fps= 16 q=-1.0 size=    4608kB time=00:00:40.94 bitrate= 922.0kbits/s speed=1.04x    frame=  629 fps= 16 q=-1.0 size=    4608kB time=00:00:41.46 bitrate= 910.4kbits/s speed=1.04x    frame=  637 fps= 16 q=-1.0 size=    4864kB time=00:00:41.98 bitrate= 949.1kbits/s speed=1.04x    frame=  645 fps= 16 q=-1.0 size=    4864kB time=00:00:42.54 bitrate= 936.6kbits/s speed=1.04x    frame=  653 fps= 16 q=-1.0 size=    4864kB time=00:00:43.06 bitrate= 925.3kbits/s speed=1.04x    frame=  661 fps= 16 q=-1.0 size=    4864kB time=00:00:43.58 bitrate= 914.3kbits/s speed=1.04x    frame=  669 fps= 16 q=-1.0 size=    5120kB time=00:00:44.14 bitrate= 950.2kbits/s speed=1.04x    frame=  677 fps= 16 q=-1.0 size=    5120kB time=00:00:44.66 bitrate= 939.1kbits/s speed=1.04x    frame=  685 fps= 16 q=-1.0 size=    5120kB time=00:00:45.18 bitrate= 928.3kbits/s speed=1.03x    frame=  693 fps= 16 q=-1.0 size=    5120kB time=00:00:45.74 bitrate= 916.9kbits/s speed=1.03x    frame=  701 fps= 16 q=-1.0 size=    5120kB time=00:00:46.26 bitrate= 906.6kbits/s speed=1.03x    frame=  709 fps= 16 q=-1.0 size=    5376kB time=00:00:46.78 bitrate= 941.4kbits/s speed=1.03x    frame=  717 fps= 16 q=-1.0 size=    5376kB time=00:00:47.34 bitrate= 930.3kbits/s speed=1.03x    frame=  725 fps= 16 q=-1.0 size=    5376kB time=00:00:47.86 bitrate= 920.2kbits/s speed=1.03x    frame=  733 fps= 16 q=-1.0 size=    5376kB time=00:00:48.38 bitrate= 910.3kbits/s speed=1.03x    frame=  741 fps= 16 q=-1.0 size=    5632kB time=00:00:48.94 bitrate= 942.7kbits/s speed=1.03x    frame=  749 fps= 16 q=-1.0 size=    5632kB time=00:00:49.46 bitrate= 932.8kbits/s speed=1.03x    frame=  757 fps= 16 q=-1.0 size=    5632kB time=00:00:49.98 bitrate= 923.1kbits/s speed=1.03x    frame=  765 fps= 16 q=-1.0 size=    5632kB time=00:00:50.54 bitrate= 912.9kbits/s speed=1.03x    frame=  773 fps= 16 q=-1.0 size=    5888kB time=00:00:51.06 bitrate= 944.6kbits/s speed=1.03x    frame=  781 fps= 16 q=-1.0 size=    5888kB time=00:00:51.58 bitrate= 935.1kbits/s speed=1.03x    frame=  789 fps= 16 q=-1.0 size=    5888kB time=00:00:52.14 bitrate= 925.1kbits/s speed=1.03x    frame=  797 fps= 16 q=-1.0 size=    5888kB time=00:00:52.66 bitrate= 915.9kbits/s speed=1.03x    frame=  805 fps= 16 q=-1.0 size=    5888kB time=00:00:53.18 bitrate= 907.0kbits/s speed=1.03x    frame=  813 fps= 16 q=-1.0 size=    6144kB time=00:00:53.74 bitrate= 936.6kbits/s speed=1.03x    frame=  821 fps= 16 q=-1.0 size=    6144kB time=00:00:54.26 bitrate= 927.6kbits/s speed=1.03x    frame=  829 fps= 16 q=-1.0 size=    6144kB time=00:00:54.78 bitrate= 918.8kbits/s speed=1.03x    frame=  837 fps= 16 q=-1.0 size=    6144kB time=00:00:55.34 bitrate= 909.5kbits/s speed=1.03x    frame=  845 fps= 16 q=-1.0 size=    6400kB time=00:00:55.86 bitrate= 938.6kbits/s speed=1.03x    frame=  853 fps= 16 q=-1.0 size=    6400kB time=00:00:56.38 bitrate= 929.9kbits/s speed=1.03x    frame=  861 fps= 16 q=-1.0 size=    6400kB time=00:00:56.94 bitrate= 920.8kbits/s speed=1.03x    frame=  869 fps= 16 q=-1.0 size=    6400kB time=00:00:57.46 bitrate= 912.4kbits/s speed=1.03x    frame=  877 fps= 16 q=-1.0 size=    6656kB time=00:00:57.98 bitrate= 940.4kbits/s speed=1.03x    frame=  885 fps= 16 q=-1.0 size=    6656kB time=00:00:58.54 bitrate= 931.4kbits/s speed=1.03x    frame=  893 fps= 16 q=-1.0 size=    6656kB time=00:00:59.06 bitrate= 923.2kbits/s speed=1.03x    frame=  901 fps= 16 q=-1.0 size=    6656kB time=00:00:59.58 bitrate= 915.2kbits/s speed=1.03x    frame=  909 fps= 16 q=-1.0 size=    6912kB time=00:01:00.14 bitrate= 941.5kbits/s speed=1.03x    frame=  917 fps= 16 q=-1.0 size=    6912kB time=00:01:00.66 bitrate= 933.4kbits/s speed=1.03x    frame=  925 fps= 16 q=-1.0 size=    6912kB time=00:01:01.18 bitrate= 925.5kbits/s speed=1.03x    frame=  933 fps= 15 q=-1.0 size=    6912kB time=00:01:01.74 bitrate= 917.1kbits/s speed=1.03x    frame=  941 fps= 15 q=-1.0 size=    6912kB time=00:01:02.26 bitrate= 909.5kbits/s speed=1.03x    frame=  949 fps= 15 q=-1.0 size=    7168kB time=00:01:02.78 bitrate= 935.3kbits/s speed=1.03x    frame=  957 fps= 15 q=-1.0 size=    7168kB time=00:01:03.34 bitrate= 927.1kbits/s speed=1.02x    frame=  965 fps= 15 q=-1.0 size=    7168kB time=00:01:03.86 bitrate= 919.5kbits/s speed=1.02x    frame=  973 fps= 15 q=-1.0 size=    7168kB time=00:01:04.38 bitrate= 912.1kbits/s speed=1.02x    frame=  981 fps= 15 q=-1.0 size=    7424kB time=00:01:04.94 bitrate= 936.5kbits/s speed=1.02x    frame=  989 fps= 15 q=-1.0 size=    7424kB time=00:01:05.46 bitrate= 929.1kbits/s speed=1.02x    frame=  997 fps= 15 q=-1.0 size=    7424kB time=00:01:05.98 bitrate= 921.8kbits/s speed=1.02x    frame= 1005 fps= 15 q=-1.0 size=    7424kB time=00:01:06.54 bitrate= 914.0kbits/s speed=1.02x    frame= 1013 fps= 15 q=-1.0 size=    7680kB time=00:01:07.05 bitrate= 938.2kbits/s speed=1.02x    frame= 1021 fps= 15 q=-1.0 size=    7680kB time=00:01:07.57 bitrate= 931.0kbits/s speed=1.02x    frame= 1029 fps= 15 q=-1.0 size=    7680kB time=00:01:08.13 bitrate= 923.3kbits/s speed=1.02x    frame= 1037 fps= 15 q=-1.0 size=    7680kB time=00:01:08.65 bitrate= 916.3kbits/s speed=1.02x    frame= 1045 fps= 15 q=-1.0 size=    7680kB time=00:01:09.17 bitrate= 909.4kbits/s speed=1.02x    frame= 1053 fps= 15 q=-1.0 size=    7936kB time=00:01:09.73 bitrate= 932.2kbits/s speed=1.02x    frame= 1061 fps= 15 q=-1.0 size=    7936kB time=00:01:10.25 bitrate= 925.3kbits/s speed=1.02x    frame= 1069 fps= 15 q=-1.0 size=    7936kB time=00:01:10.77 bitrate= 918.5kbits/s speed=1.02x    frame= 1077 fps= 15 q=-1.0 size=    7936kB time=00:01:11.33 bitrate= 911.3kbits/s speed=1.02x    frame= 1085 fps= 15 q=-1.0 size=    8192kB time=00:01:11.85 bitrate= 933.9kbits/s speed=1.02x    frame= 1093 fps= 15 q=-1.0 size=    8192kB time=00:01:12.37 bitrate= 927.2kbits/s speed=1.02x    frame= 1101 fps= 15 q=-1.0 size=    8192kB time=00:01:12.93 bitrate= 920.1kbits/s speed=1.02x    frame= 1109 fps= 15 q=-1.0 size=    8192kB time=00:01:13.45 bitrate= 913.6kbits/s speed=1.02x    frame= 1117 fps= 15 q=-1.0 size=    8448kB time=00:01:13.97 bitrate= 935.5kbits/s speed=1.02x    frame= 1125 fps= 15 q=-1.0 size=    8448kB time=00:01:14.53 bitrate= 928.5kbits/s speed=1.02x    frame= 1133 fps= 15 q=-1.0 size=    8448kB time=00:01:15.05 bitrate= 922.0kbits/s speed=1.02x    frame= 1141 fps= 15 q=-1.0 size=    8448kB time=00:01:15.57 bitrate= 915.7kbits/s speed=1.02x    frame= 1149 fps= 15 q=-1.0 size=    8448kB time=00:01:16.13 bitrate= 908.9kbits/s speed=1.02x    frame= 1157 fps= 15 q=-1.0 size=    8704kB time=00:01:16.65 bitrate= 930.1kbits/s speed=1.02x    frame= 1165 fps= 15 q=-1.0 size=    8704kB time=00:01:17.17 bitrate= 923.9kbits/s speed=1.02x    frame= 1173 fps= 15 q=-1.0 size=    8704kB time=00:01:17.73 bitrate= 917.2kbits/s speed=1.02x    frame= 1181 fps= 15 q=-1.0 size=    8704kB time=00:01:18.25 bitrate= 911.1kbits/s speed=1.02x    frame= 1189 fps= 15 q=-1.0 size=    8960kB time=00:01:18.77 bitrate= 931.7kbits/s speed=1.02x    frame= 1197 fps= 15 q=-1.0 size=    8960kB time=00:01:19.33 bitrate= 925.2kbits/s speed=1.02x    frame= 1205 fps= 15 q=-1.0 size=    8960kB time=00:01:19.85 bitrate= 919.1kbits/s speed=1.02x    frame= 1213 fps= 15 q=-1.0 size=    8960kB time=00:01:20.37 bitrate= 913.2kbits/s speed=1.02x    frame= 1221 fps= 15 q=-1.0 size=    8960kB time=00:01:20.93 bitrate= 906.9kbits/s speed=1.02x    frame= 1229 fps= 15 q=-1.0 size=    9216kB time=00:01:21.45 bitrate= 926.8kbits/s speed=1.02x    frame= 1237 fps= 15 q=-1.0 size=    9216kB time=00:01:21.97 bitrate= 920.9kbits/s speed=1.02x    frame= 1245 fps= 15 q=-1.0 size=    9216kB time=00:01:22.53 bitrate= 914.7kbits/s speed=1.02x    frame= 1253 fps= 15 q=-1.0 size=    9216kB time=00:01:23.05 bitrate= 909.0kbits/s speed=1.02x    frame= 1261 fps= 15 q=-1.0 size=    9472kB time=00:01:23.57 bitrate= 928.4kbits/s speed=1.02x    frame= 1269 fps= 15 q=-1.0 size=    9472kB time=00:01:24.13 bitrate= 922.2kbits/s speed=1.02x    frame= 1277 fps= 15 q=-1.0 size=    9472kB time=00:01:24.65 bitrate= 916.6kbits/s speed=1.02x    frame= 1285 fps= 15 q=-1.0 size=    9472kB time=00:01:25.17 bitrate= 911.0kbits/s speed=1.02x    frame= 1293 fps= 15 q=-1.0 size=    9472kB time=00:01:25.73 bitrate= 905.0kbits/s speed=1.02x    frame= 1301 fps= 15 q=-1.0 size=    9728kB time=00:01:26.25 bitrate= 923.9kbits/s speed=1.02x    frame= 1309 fps= 15 q=-1.0 size=    9728kB time=00:01:26.77 bitrate= 918.3kbits/s speed=1.02x    frame= 1317 fps= 15 q=-1.0 size=    9728kB time=00:01:27.33 bitrate= 912.5kbits/s speed=1.02x    frame= 1325 fps= 15 q=-1.0 size=    9728kB time=00:01:27.85 bitrate= 907.1kbits/s speed=1.02x    frame= 1333 fps= 15 q=-1.0 size=    9984kB time=00:01:28.37 bitrate= 925.5kbits/s speed=1.02x    frame= 1341 fps= 15 q=-1.0 size=    9984kB time=00:01:28.93 bitrate= 919.6kbits/s speed=1.02x    frame= 1349 fps= 15 q=-1.0 size=    9984kB time=00:01:29.45 bitrate= 914.3kbits/s speed=1.02x    frame= 1357 fps= 15 q=-1.0 size=    9984kB time=00:01:29.97 bitrate= 909.0kbits/s speed=1.02x    frame= 1365 fps= 15 q=-1.0 size=   10240kB time=00:01:30.53 bitrate= 926.5kbits/s speed=1.02x    frame= 1373 fps= 15 q=-1.0 size=   10240kB time=00:01:31.05 bitrate= 921.2kbits/s speed=1.02x    frame= 1381 fps= 15 q=-1.0 size=   10240kB time=00:01:31.57 bitrate= 916.0kbits/s speed=1.02x    frame= 1389 fps= 15 q=-1.0 size=   10240kB time=00:01:32.13 bitrate= 910.4kbits/s speed=1.02x    frame= 1397 fps= 15 q=-1.0 size=   10496kB time=00:01:32.65 bitrate= 928.0kbits/s speed=1.02x    frame= 1405 fps= 15 q=-1.0 size=   10496kB time=00:01:33.17 bitrate= 922.8kbits/s speed=1.02x    frame= 1413 fps= 15 q=-1.0 size=   10496kB time=00:01:33.73 bitrate= 917.3kbits/s speed=1.02x    frame= 1421 fps= 15 q=-1.0 size=   10496kB time=00:01:34.25 bitrate= 912.2kbits/s speed=1.02x    frame= 1429 fps= 15 q=-1.0 size=   10496kB time=00:01:34.77 bitrate= 907.2kbits/s speed=1.02x    frame= 1437 fps= 15 q=-1.0 size=   10752kB time=00:01:35.33 bitrate= 923.9kbits/s speed=1.02x    frame= 1445 fps= 15 q=-1.0 size=   10752kB time=00:01:35.85 bitrate= 918.9kbits/s speed=1.02x    frame= 1453 fps= 15 q=-1.0 size=   10752kB time=00:01:36.37 bitrate= 913.9kbits/s speed=1.02x    frame= 1461 fps= 15 q=-1.0 size=   10752kB time=00:01:36.93 bitrate= 908.6kbits/s speed=1.02x    frame= 1469 fps= 15 q=-1.0 size=   11008kB time=00:01:37.45 bitrate= 925.3kbits/s speed=1.02x    frame= 1477 fps= 15 q=-1.0 size=   11008kB time=00:01:37.97 bitrate= 920.4kbits/s speed=1.02x    frame= 1485 fps= 15 q=-1.0 size=   11008kB time=00:01:38.53 bitrate= 915.2kbits/s speed=1.02x    frame= 1493 fps= 15 q=-1.0 size=   11008kB time=00:01:39.05 bitrate= 910.4kbits/s speed=1.02x    frame= 1501 fps= 15 q=-1.0 size=   11008kB time=00:01:39.57 bitrate= 905.6kbits/s speed=1.02x    frame= 1509 fps= 15 q=-1.0 size=   11264kB time=00:01:40.13 bitrate= 921.5kbits/s speed=1.02x    frame= 1517 fps= 15 q=-1.0 size=   11264kB time=00:01:40.65 bitrate= 916.7kbits/s speed=1.02x    frame= 1525 fps= 15 q=-1.0 size=   11264kB time=00:01:41.17 bitrate= 912.0kbits/s speed=1.02x    frame= 1533 fps= 15 q=-1.0 size=   11264kB time=00:01:41.73 bitrate= 907.0kbits/s speed=1.02x    frame= 1541 fps= 15 q=-1.0 size=   11520kB time=00:01:42.25 bitrate= 922.9kbits/s speed=1.02x    frame= 1549 fps= 15 q=-1.0 size=   11520kB time=00:01:42.77 bitrate= 918.2kbits/s speed=1.02x    frame= 1557 fps= 15 q=-1.0 size=   11520kB time=00:01:43.33 bitrate= 913.3kbits/s speed=1.02x    frame= 1565 fps= 15 q=-1.0 size=   11520kB time=00:01:43.85 bitrate= 908.7kbits/s speed=1.02x    frame= 1573 fps= 15 q=-1.0 size=   11776kB time=00:01:44.37 bitrate= 924.2kbits/s speed=1.02x    frame= 1581 fps= 15 q=-1.0 size=   11776kB time=00:01:44.93 bitrate= 919.3kbits/s speed=1.02x    frame= 1589 fps= 15 q=-1.0 size=   11776kB time=00:01:45.45 bitrate= 914.8kbits/s speed=1.02x    frame= 1597 fps= 15 q=-1.0 size=   11776kB time=00:01:45.97 bitrate= 910.3kbits/s speed=1.02x    frame= 1605 fps= 15 q=-1.0 size=   11776kB time=00:01:46.53 bitrate= 905.5kbits/s speed=1.02x    frame= 1613 fps= 15 q=-1.0 size=   12032kB time=00:01:47.05 bitrate= 920.7kbits/s speed=1.01x    frame= 1621 fps= 15 q=-1.0 size=   12032kB time=00:01:47.57 bitrate= 916.3kbits/s speed=1.01x    frame= 1629 fps= 15 q=-1.0 size=   12032kB time=00:01:48.13 bitrate= 911.5kbits/s speed=1.01x    frame= 1637 fps= 15 q=-1.0 size=   12032kB time=00:01:48.65 bitrate= 907.1kbits/s speed=1.01x    frame= 1645 fps= 15 q=-1.0 size=   12288kB time=00:01:49.17 bitrate= 922.0kbits/s speed=1.01x    frame= 1653 fps= 15 q=-1.0 size=   12288kB time=00:01:49.73 bitrate= 917.3kbits/s speed=1.01x    frame= 1661 fps= 15 q=-1.0 size=   12288kB time=00:01:50.25 bitrate= 913.0kbits/s speed=1.01x    frame= 1669 fps= 15 q=-1.0 size=   12288kB time=00:01:50.77 bitrate= 908.7kbits/s speed=1.01x    frame= 1677 fps= 15 q=-1.0 size=   12544kB time=00:01:51.33 bitrate= 923.0kbits/s speed=1.01x    frame= 1685 fps= 15 q=-1.0 size=   12544kB time=00:01:51.85 bitrate= 918.7kbits/s speed=1.01x    frame= 1693 fps= 15 q=-1.0 size=   12544kB time=00:01:52.37 bitrate= 914.4kbits/s speed=1.01x    frame= 1701 fps= 15 q=-1.0 size=   12544kB time=00:01:52.93 bitrate= 909.9kbits/s speed=1.01x    frame= 1709 fps= 15 q=-1.0 size=   12800kB time=00:01:53.45 bitrate= 924.2kbits/s speed=1.01x    frame= 1717 fps= 15 q=-1.0 size=   12800kB time=00:01:53.97 bitrate= 920.0kbits/s speed=1.01x    frame= 1725 fps= 15 q=-1.0 size=   12800kB time=00:01:54.53 bitrate= 915.5kbits/s speed=1.01x    frame= 1733 fps= 15 q=-1.0 size=   12800kB time=00:01:55.05 bitrate= 911.4kbits/s speed=1.01x    frame= 1741 fps= 15 q=-1.0 size=   12800kB time=00:01:55.57 bitrate= 907.3kbits/s speed=1.01x    frame= 1749 fps= 15 q=-1.0 size=   13056kB time=00:01:56.13 bitrate= 920.9kbits/s speed=1.01x    frame= 1757 fps= 15 q=-1.0 size=   13056kB time=00:01:56.65 bitrate= 916.9kbits/s speed=1.01x    frame= 1765 fps= 15 q=-1.0 size=   13056kB time=00:01:57.17 bitrate= 912.8kbits/s speed=1.01x    frame= 1773 fps= 15 q=-1.0 size=   13056kB time=00:01:57.73 bitrate= 908.4kbits/s speed=1.01x    frame= 1781 fps= 15 q=-1.0 size=   13312kB time=00:01:58.25 bitrate= 922.2kbits/s speed=1.01x    frame= 1789 fps= 15 q=-1.0 size=   13312kB time=00:01:58.77 bitrate= 918.1kbits/s speed=1.01x    frame= 1797 fps= 15 q=-1.0 size=   13312kB time=00:01:59.33 bitrate= 913.8kbits/s speed=1.01x    frame= 1805 fps= 15 q=-1.0 size=   13312kB time=00:01:59.85 bitrate= 909.9kbits/s speed=1.01x    frame= 1813 fps= 15 q=-1.0 size=   13568kB time=00:02:00.37 bitrate= 923.4kbits/s speed=1.01x    frame= 1821 fps= 15 q=-1.0 size=   13568kB time=00:02:00.93 bitrate= 919.1kbits/s speed=1.01x    frame= 1829 fps= 15 q=-1.0 size=   13568kB time=00:02:01.45 bitrate= 915.2kbits/s speed=1.01x    frame= 1837 fps= 15 q=-1.0 size=   13568kB time=00:02:01.97 bitrate= 911.3kbits/s speed=1.01x    frame= 1845 fps= 15 q=-1.0 size=   13568kB time=00:02:02.53 bitrate= 907.1kbits/s speed=1.01x    frame= 1853 fps= 15 q=-1.0 size=   13824kB time=00:02:03.05 bitrate= 920.3kbits/s speed=1.01x    frame= 1861 fps= 15 q=-1.0 size=   13824kB time=00:02:03.57 bitrate= 916.4kbits/s speed=1.01x    frame= 1869 fps= 15 q=-1.0 size=   13824kB time=00:02:04.13 bitrate= 912.3kbits/s speed=1.01x    frame= 1877 fps= 15 q=-1.0 size=   13824kB time=00:02:04.65 bitrate= 908.5kbits/s speed=1.01x    frame= 1885 fps= 15 q=-1.0 size=   14080kB time=00:02:05.17 bitrate= 921.5kbits/s speed=1.01x    frame= 1893 fps= 15 q=-1.0 size=   14080kB time=00:02:05.73 bitrate= 917.4kbits/s speed=1.01x    frame= 1901 fps= 15 q=-1.0 size=   14080kB time=00:02:06.25 bitrate= 913.6kbits/s speed=1.01x    frame= 1909 fps= 15 q=-1.0 size=   14080kB time=00:02:06.77 bitrate= 909.8kbits/s speed=1.01x    frame= 1917 fps= 15 q=-1.0 size=   14336kB time=00:02:07.33 bitrate= 922.3kbits/s speed=1.01x    frame= 1925 fps= 15 q=-1.0 size=   14336kB time=00:02:07.85 bitrate= 918.6kbits/s speed=1.01x    frame= 1933 fps= 15 q=-1.0 size=   14336kB time=00:02:08.37 bitrate= 914.8kbits/s speed=1.01x    frame= 1941 fps= 15 q=-1.0 size=   14336kB time=00:02:08.93 bitrate= 910.9kbits/s speed=1.01x    frame= 1949 fps= 15 q=-1.0 size=   14336kB time=00:02:09.45 bitrate= 907.2kbits/s speed=1.01x    frame= 1957 fps= 15 q=-1.0 size=   14592kB time=00:02:09.97 bitrate= 919.7kbits/s speed=1.01x    frame= 1965 fps= 15 q=-1.0 size=   14592kB time=00:02:10.53 bitrate= 915.8kbits/s speed=1.01x    frame= 1973 fps= 15 q=-1.0 size=   14592kB time=00:02:11.05 bitrate= 912.1kbits/s speed=1.01x    frame= 1981 fps= 15 q=-1.0 size=   14592kB time=00:02:11.57 bitrate= 908.5kbits/s speed=1.01x    frame= 1989 fps= 15 q=-1.0 size=   14848kB time=00:02:12.13 bitrate= 920.5kbits/s speed=1.01x    frame= 1997 fps= 15 q=-1.0 size=   14848kB time=00:02:12.65 bitrate= 916.9kbits/s speed=1.01x    frame= 2005 fps= 15 q=-1.0 size=   14848kB time=00:02:13.17 bitrate= 913.4kbits/s speed=1.01x    frame= 2013 fps= 15 q=-1.0 size=   14848kB time=00:02:13.73 bitrate= 909.5kbits/s speed=1.01x    frame= 2021 fps= 15 q=-1.0 size=   15104kB time=00:02:14.25 bitrate= 921.6kbits/s speed=1.01x    frame= 2029 fps= 15 q=-1.0 size=   15104kB time=00:02:14.77 bitrate= 918.1kbits/s speed=1.01x    frame= 2037 fps= 15 q=-1.0 size=   15104kB time=00:02:15.33 bitrate= 914.3kbits/s speed=1.01x    frame= 2045 fps= 15 q=-1.0 size=   15104kB time=00:02:15.85 bitrate= 910.8kbits/s speed=1.01x    frame= 2053 fps= 15 q=-1.0 size=   15360kB time=00:02:16.37 bitrate= 922.7kbits/s speed=1.01x    frame= 2061 fps= 15 q=-1.0 size=   15360kB time=00:02:16.93 bitrate= 918.9kbits/s speed=1.01x    frame= 2069 fps= 15 q=-1.0 size=   15360kB time=00:02:17.45 bitrate= 915.4kbits/s speed=1.01x    frame= 2077 fps= 15 q=-1.0 size=   15360kB time=00:02:17.97 bitrate= 912.0kbits/s speed=1.01x    frame= 2085 fps= 15 q=-1.0 size=   15616kB time=00:02:18.53 bitrate= 923.4kbits/s speed=1.01x    frame= 2093 fps= 15 q=-1.0 size=   15616kB time=00:02:19.05 bitrate= 920.0kbits/s speed=1.01x    frame= 2101 fps= 15 q=-1.0 size=   15616kB time=00:02:19.57 bitrate= 916.6kbits/s speed=1.01x    frame= 2109 fps= 15 q=-1.0 size=   15616kB time=00:02:20.13 bitrate= 912.9kbits/s speed=1.01x    frame= 2117 fps= 15 q=-1.0 size=   15872kB time=00:02:20.65 bitrate= 924.4kbits/s speed=1.01x    frame= 2125 fps= 15 q=-1.0 size=   15872kB time=00:02:21.17 bitrate= 921.0kbits/s speed=1.01x    frame= 2133 fps= 15 q=-1.0 size=   15872kB time=00:02:21.73 bitrate= 917.4kbits/s speed=1.01x    frame= 2141 fps= 15 q=-1.0 size=   15872kB time=00:02:22.25 bitrate= 914.0kbits/s speed=1.01x    frame= 2149 fps= 15 q=-1.0 size=   15872kB time=00:02:22.77 bitrate= 910.7kbits/s speed=1.01x    frame= 2157 fps= 15 q=-1.0 size=   16128kB time=00:02:23.33 bitrate= 921.8kbits/s speed=1.01x    frame= 2165 fps= 15 q=-1.0 size=   16128kB time=00:02:23.85 bitrate= 918.4kbits/s speed=1.01x    frame= 2173 fps= 15 q=-1.0 size=   16128kB time=00:02:24.37 bitrate= 915.1kbits/s speed=1.01x    frame= 2181 fps= 15 q=-1.0 size=   16128kB time=00:02:24.93 bitrate= 911.6kbits/s speed=1.01x    frame= 2189 fps= 15 q=-1.0 size=   16384kB time=00:02:25.45 bitrate= 922.8kbits/s speed=1.01x    frame= 2197 fps= 15 q=-1.0 size=   16384kB time=00:02:25.97 bitrate= 919.5kbits/s speed=1.01x    frame= 2205 fps= 15 q=-1.0 size=   16384kB time=00:02:26.53 bitrate= 916.0kbits/s speed=1.01x    frame= 2213 fps= 15 q=-1.0 size=   16384kB time=00:02:27.05 bitrate= 912.7kbits/s speed=1.01x    frame= 2221 fps= 15 q=-1.0 size=   16640kB time=00:02:27.57 bitrate= 923.7kbits/s speed=1.01x    frame= 2229 fps= 15 q=-1.0 size=   16640kB time=00:02:28.13 bitrate= 920.2kbits/s speed=1.01x    frame= 2237 fps= 15 q=-1.0 size=   16640kB time=00:02:28.65 bitrate= 917.0kbits/s speed=1.01x    frame= 2245 fps= 15 q=-1.0 size=   16640kB time=00:02:29.17 bitrate= 913.8kbits/s speed=1.01x    frame= 2253 fps= 15 q=-1.0 size=   16896kB time=00:02:29.73 bitrate= 924.4kbits/s speed=1.01x    frame= 2261 fps= 15 q=-1.0 size=   16896kB time=00:02:30.25 bitrate= 921.2kbits/s speed=1.01x    frame= 2269 fps= 15 q=-1.0 size=   16896kB time=00:02:30.77 bitrate= 918.0kbits/s speed=1.01x    frame= 2277 fps= 15 q=-1.0 size=   16896kB time=00:02:31.33 bitrate= 914.6kbits/s speed=1.01x    frame= 2285 fps= 15 q=-1.0 size=   17152kB time=00:02:31.85 bitrate= 925.3kbits/s speed=1.01x    frame= 2293 fps= 15 q=-1.0 size=   17152kB time=00:02:32.37 bitrate= 922.2kbits/s speed=1.01x    frame= 2301 fps= 15 q=-1.0 size=   17152kB time=00:02:32.93 bitrate= 918.8kbits/s speed=1.01x    frame= 2309 fps= 15 q=-1.0 size=   17152kB time=00:02:33.45 bitrate= 915.7kbits/s speed=1.01x    frame= 2317 fps= 15 q=-1.0 size=   17408kB time=00:02:33.97 bitrate= 926.2kbits/s speed=1.01x    frame= 2325 fps= 15 q=-1.0 size=   17408kB time=00:02:34.53 bitrate= 922.8kbits/s speed=1.01x    frame= 2333 fps= 15 q=-1.0 size=   17408kB time=00:02:35.05 bitrate= 919.7kbits/s speed=1.01x    frame= 2341 fps= 15 q=-1.0 size=   17408kB time=00:02:35.57 bitrate= 916.7kbits/s speed=1.01x    frame= 2349 fps= 15 q=-1.0 size=   17664kB time=00:02:36.13 bitrate= 926.8kbits/s speed=1.01x    frame= 2357 fps= 15 q=-1.0 size=   17664kB time=00:02:36.65 bitrate= 923.7kbits/s speed=1.01x    frame= 2365 fps= 15 q=-1.0 size=   17664kB time=00:02:37.17 bitrate= 920.7kbits/s speed=1.01x    frame= 2373 fps= 15 q=-1.0 size=   17664kB time=00:02:37.73 bitrate= 917.4kbits/s speed=1.01x    frame= 2381 fps= 15 q=-1.0 size=   17920kB time=00:02:38.25 bitrate= 927.6kbits/s speed=1.01x    frame= 2389 fps= 15 q=-1.0 size=   17920kB time=00:02:38.77 bitrate= 924.6kbits/s speed=1.01x    frame= 2397 fps= 15 q=-1.0 size=   17920kB time=00:02:39.33 bitrate= 921.4kbits/s speed=1.01x    frame= 2405 fps= 15 q=-1.0 size=   17920kB time=00:02:39.85 bitrate= 918.4kbits/s speed=1.01x    frame= 2413 fps= 15 q=-1.0 size=   18176kB time=00:02:40.37 bitrate= 928.5kbits/s speed=1.01x    frame= 2421 fps= 15 q=-1.0 size=   18176kB time=00:02:40.93 bitrate= 925.2kbits/s speed=1.01x    frame= 2429 fps= 15 q=-1.0 size=   18176kB time=00:02:41.45 bitrate= 922.3kbits/s speed=1.01x    frame= 2437 fps= 15 q=-1.0 size=   18176kB time=00:02:41.97 bitrate= 919.3kbits/s speed=1.01x    frame= 2445 fps= 15 q=-1.0 size=   18176kB time=00:02:42.53 bitrate= 916.1kbits/s speed=1.01x    frame= 2453 fps= 15 q=-1.0 size=   18432kB time=00:02:43.05 bitrate= 926.1kbits/s speed=1.01x    frame= 2461 fps= 15 q=-1.0 size=   18432kB time=00:02:43.57 bitrate= 923.1kbits/s speed=1.01x    frame= 2469 fps= 15 q=-1.0 size=   18432kB time=00:02:44.13 bitrate= 920.0kbits/s speed=1.01x    frame= 2477 fps= 15 q=-1.0 size=   18432kB time=00:02:44.65 bitrate= 917.1kbits/s speed=1.01x    frame= 2485 fps= 15 q=-1.0 size=   18688kB time=00:02:45.17 bitrate= 926.9kbits/s speed=1.01x    frame= 2493 fps= 15 q=-1.0 size=   18688kB time=00:02:45.73 bitrate= 923.7kbits/s speed=1.01x    frame= 2501 fps= 15 q=-1.0 size=   18688kB time=00:02:46.25 bitrate= 920.9kbits/s speed=1.01x    frame= 2509 fps= 15 q=-1.0 size=   18688kB time=00:02:46.76 bitrate= 918.0kbits/s speed=1.01x    frame= 2517 fps= 15 q=-1.0 size=   18944kB time=00:02:47.32 bitrate= 927.4kbits/s speed=1.01x    frame= 2525 fps= 15 q=-1.0 size=   18944kB time=00:02:47.84 bitrate= 924.6kbits/s speed=1.01x    frame= 2533 fps= 15 q=-1.0 size=   18944kB time=00:02:48.36 bitrate= 921.7kbits/s speed=1.01x    frame= 2541 fps= 15 q=-1.0 size=   18944kB time=00:02:48.92 bitrate= 918.7kbits/s speed=1.01x    frame= 2549 fps= 15 q=-1.0 size=   19200kB time=00:02:49.44 bitrate= 928.2kbits/s speed=1.01x    frame= 2557 fps= 15 q=-1.0 size=   19200kB time=00:02:49.96 bitrate= 925.4kbits/s speed=1.01x    frame= 2565 fps= 15 q=-1.0 size=   19200kB time=00:02:50.52 bitrate= 922.3kbits/s speed=1.01x    frame= 2573 fps= 15 q=-1.0 size=   19200kB time=00:02:51.04 bitrate= 919.5kbits/s speed=1.01x    frame= 2581 fps= 15 q=-1.0 size=   19456kB time=00:02:51.56 bitrate= 929.0kbits/s speed=1.01x    frame= 2589 fps= 15 q=-1.0 size=   19456kB time=00:02:52.12 bitrate= 926.0kbits/s speed=1.01x    frame= 2597 fps= 15 q=-1.0 size=   19456kB time=00:02:52.64 bitrate= 923.2kbits/s speed=1.01x    frame= 2605 fps= 15 q=-1.0 size=   19456kB time=00:02:53.16 bitrate= 920.4kbits/s speed=1.01x    frame= 2613 fps= 15 q=-1.0 size=   19712kB time=00:02:53.72 bitrate= 929.5kbits/s speed=1.01x    frame= 2621 fps= 15 q=-1.0 size=   19712kB time=00:02:54.24 bitrate= 926.7kbits/s speed=1.01x    frame= 2629 fps= 15 q=-1.0 size=   19712kB time=00:02:54.76 bitrate= 924.0kbits/s speed=1.01x    frame= 2637 fps= 15 q=-1.0 size=   19712kB time=00:02:55.32 bitrate= 921.0kbits/s speed=1.01x    frame= 2645 fps= 15 q=-1.0 size=   19712kB time=00:02:55.84 bitrate= 918.3kbits/s speed=1.01x    frame= 2653 fps= 15 q=-1.0 size=   19968kB time=00:02:56.36 bitrate= 927.5kbits/s speed=1.01x    frame= 2661 fps= 15 q=-1.0 size=   19968kB time=00:02:56.92 bitrate= 924.5kbits/s speed=1.01x    frame= 2669 fps= 15 q=-1.0 size=   19968kB time=00:02:57.44 bitrate= 921.8kbits/s speed=1.01x    frame= 2677 fps= 15 q=-1.0 size=   19968kB time=00:02:57.96 bitrate= 919.1kbits/s speed=1.01x    frame= 2685 fps= 15 q=-1.0 size=   20224kB time=00:02:58.52 bitrate= 928.0kbits/s speed=1.01x    frame= 2693 fps= 15 q=-1.0 size=   20224kB time=00:02:59.04 bitrate= 925.3kbits/s speed=1.01x    frame= 2701 fps= 15 q=-1.0 size=   20224kB time=00:02:59.56 bitrate= 922.6kbits/s speed=1.01x    frame= 2709 fps= 15 q=-1.0 size=   20224kB time=00:03:00.12 bitrate= 919.8kbits/s speed=1.01x    frame= 2717 fps= 15 q=-1.0 size=   20480kB time=00:03:00.64 bitrate= 928.7kbits/s speed=1.01x    frame= 2725 fps= 15 q=-1.0 size=   20480kB time=00:03:01.16 bitrate= 926.1kbits/s speed=1.01x    frame= 2733 fps= 15 q=-1.0 size=   20480kB time=00:03:01.72 bitrate= 923.2kbits/s speed=1.01x    frame= 2741 fps= 15 q=-1.0 size=   20480kB time=00:03:02.24 bitrate= 920.6kbits/s speed=1.01x    frame= 2749 fps= 15 q=-1.0 size=   20736kB time=00:03:02.76 bitrate= 929.4kbits/s speed=1.01x    frame= 2757 fps= 15 q=-1.0 size=   20736kB time=00:03:03.32 bitrate= 926.6kbits/s speed=1.01x    frame= 2765 fps= 15 q=-1.0 size=   20736kB time=00:03:03.84 bitrate= 924.0kbits/s speed=1.01x    frame= 2773 fps= 15 q=-1.0 size=   20736kB time=00:03:04.36 bitrate= 921.4kbits/s speed=1.01x    frame= 2781 fps= 15 q=-1.0 size=   20736kB time=00:03:04.92 bitrate= 918.6kbits/s speed=1.01x    frame= 2789 fps= 15 q=-1.0 size=   20992kB time=00:03:05.44 bitrate= 927.3kbits/s speed=1.01x    frame= 2797 fps= 15 q=-1.0 size=   20992kB time=00:03:05.96 bitrate= 924.7kbits/s speed=1.01x    frame= 2805 fps= 15 q=-1.0 size=   20992kB time=00:03:06.52 bitrate= 921.9kbits/s speed=1.01x    frame= 2813 fps= 15 q=-1.0 size=   20992kB time=00:03:07.04 bitrate= 919.4kbits/s speed=1.01x    frame= 2821 fps= 15 q=-1.0 size=   21248kB time=00:03:07.56 bitrate= 928.0kbits/s speed=1.01x    frame= 2829 fps= 15 q=-1.0 size=   21248kB time=00:03:08.12 bitrate= 925.2kbits/s speed=1.01x    frame= 2837 fps= 15 q=-1.0 size=   21248kB time=00:03:08.64 bitrate= 922.7kbits/s speed=1.01x    frame= 2845 fps= 15 q=-1.0 size=   21248kB time=00:03:09.16 bitrate= 920.2kbits/s speed=1.01x    frame= 2853 fps= 15 q=-1.0 size=   21504kB time=00:03:09.72 bitrate= 928.5kbits/s speed=1.01x    frame= 2861 fps= 15 q=-1.0 size=   21504kB time=00:03:10.24 bitrate= 926.0kbits/s speed=1.01x    frame= 2869 fps= 15 q=-1.0 size=   21504kB time=00:03:10.76 bitrate= 923.4kbits/s speed=1.01x    frame= 2877 fps= 15 q=-1.0 size=   21504kB time=00:03:11.32 bitrate= 920.7kbits/s speed=1.01x    frame= 2885 fps= 15 q=-1.0 size=   21760kB time=00:03:11.84 bitrate= 929.2kbits/s speed=1.01x    frame= 2893 fps= 15 q=-1.0 size=   21760kB time=00:03:12.36 bitrate= 926.7kbits/s speed=1.01x    frame= 2901 fps= 15 q=-1.0 size=   21760kB time=00:03:12.92 bitrate= 924.0kbits/s speed=1.01x    frame= 2909 fps= 15 q=-1.0 size=   21760kB time=00:03:13.44 bitrate= 921.5kbits/s speed=1.01x    frame= 2917 fps= 15 q=-1.0 size=   22016kB time=00:03:13.96 bitrate= 929.8kbits/s speed=1.01x    frame= 2925 fps= 15 q=-1.0 size=   22016kB time=00:03:14.52 bitrate= 927.1kbits/s speed=1.01x    frame= 2933 fps= 15 q=-1.0 size=   22016kB time=00:03:15.04 bitrate= 924.7kbits/s speed=1.01x    frame= 2941 fps= 15 q=-1.0 size=   22016kB time=00:03:15.56 bitrate= 922.2kbits/s speed=1.01x    frame= 2949 fps= 15 q=-1.0 size=   22016kB time=00:03:16.12 bitrate= 919.6kbits/s speed=1.01x    frame= 2957 fps= 15 q=-1.0 size=   22272kB time=00:03:16.64 bitrate= 927.8kbits/s speed=1.01x    frame= 2965 fps= 15 q=-1.0 size=   22272kB time=00:03:17.16 bitrate= 925.4kbits/s speed=1.01x    frame= 2973 fps= 15 q=-1.0 size=   22272kB time=00:03:17.72 bitrate= 922.8kbits/s speed=1.01x    frame= 2981 fps= 15 q=-1.0 size=   22272kB time=00:03:18.24 bitrate= 920.3kbits/s speed=1.01x    frame= 2989 fps= 15 q=-1.0 size=   22528kB time=00:03:18.76 bitrate= 928.5kbits/s speed=1.01x    frame= 2997 fps= 15 q=-1.0 size=   22528kB time=00:03:19.32 bitrate= 925.9kbits/s speed=1.01x    frame= 3005 fps= 15 q=-1.0 size=   22528kB time=00:03:19.84 bitrate= 923.5kbits/s speed=1.01x    frame= 3013 fps= 15 q=-1.0 size=   22528kB time=00:03:20.36 bitrate= 921.1kbits/s speed=1.01x    frame= 3021 fps= 15 q=-1.0 size=   22784kB time=00:03:20.92 bitrate= 928.9kbits/s speed=1.01x    frame= 3029 fps= 15 q=-1.0 size=   22784kB time=00:03:21.44 bitrate= 926.5kbits/s speed=1.01x    frame= 3037 fps= 15 q=-1.0 size=   22784kB time=00:03:21.96 bitrate= 924.1kbits/s speed=1.01x    frame= 3045 fps= 15 q=-1.0 size=   22784kB time=00:03:22.52 bitrate= 921.6kbits/s speed=1.01x    frame= 3053 fps= 15 q=-1.0 size=   23040kB time=00:03:23.04 bitrate= 929.6kbits/s speed=1.01x    frame= 3061 fps= 15 q=-1.0 size=   23040kB time=00:03:23.56 bitrate= 927.2kbits/s speed=1.01x    frame= 3069 fps= 15 q=-1.0 size=   23040kB time=00:03:24.12 bitrate= 924.6kbits/s speed=1.01x    frame= 3077 fps= 15 q=-1.0 size=   23040kB time=00:03:24.64 bitrate= 922.3kbits/s speed=1.01x    frame= 3083 fps= 15 q=-1.0 size=   23296kB time=00:03:25.04 bitrate= 930.7kbits/s speed=1.01x    frame= 3093 fps= 15 q=-1.0 size=   23296kB time=00:03:25.72 bitrate= 927.6kbits/s speed=1.01x    frame= 3101 fps= 15 q=-1.0 size=   23296kB time=00:03:26.24 bitrate= 925.3kbits/s speed=1.01x    frame= 3109 fps= 15 q=-1.0 size=   23296kB time=00:03:26.76 bitrate= 923.0kbits/s speed=1.01x    frame= 3117 fps= 15 q=-1.0 size=   23552kB time=00:03:27.32 bitrate= 930.6kbits/s speed=1.01x    frame= 3125 fps= 15 q=-1.0 size=   23552kB time=00:03:27.84 bitrate= 928.3kbits/s speed=1.01x    frame= 3133 fps= 15 q=-1.0 size=   23552kB time=00:03:28.36 bitrate= 926.0kbits/s speed=1.01x    frame= 3141 fps= 15 q=-1.0 size=   23552kB time=00:03:28.92 bitrate= 923.5kbits/s speed=1.01x    frame= 3149 fps= 15 q=-1.0 size=   23552kB time=00:03:29.44 bitrate= 921.2kbits/s speed=1.01x    frame= 3157 fps= 15 q=-1.0 size=   23808kB time=00:03:29.96 bitrate= 928.9kbits/s speed=1.01x    frame= 3165 fps= 15 q=-1.0 size=   23808kB time=00:03:30.52 bitrate= 926.4kbits/s speed=1.01x    frame= 3173 fps= 15 q=-1.0 size=   23808kB time=00:03:31.04 bitrate= 924.1kbits/s speed=1.01x    frame= 3181 fps= 15 q=-1.0 size=   23808kB time=00:03:31.56 bitrate= 921.9kbits/s speed=1.01x    frame= 3189 fps= 15 q=-1.0 size=   24064kB time=00:03:32.12 bitrate= 929.3kbits/s speed=1.01x    frame= 3197 fps= 15 q=-1.0 size=   24064kB time=00:03:32.64 bitrate= 927.0kbits/s speed=1.01x    frame= 3205 fps= 15 q=-1.0 size=   24064kB time=00:03:33.16 bitrate= 924.8kbits/s speed=1.01x    frame= 3213 fps= 15 q=-1.0 size=   24320kB time=00:03:33.72 bitrate= 932.2kbits/s speed=1.01x    frame= 3221 fps= 15 q=-1.0 size=   24320kB time=00:03:34.24 bitrate= 929.9kbits/s speed=1.01x    frame= 3229 fps= 15 q=-1.0 size=   24320kB time=00:03:34.76 bitrate= 927.7kbits/s speed=1.01x    frame= 3237 fps= 15 q=-1.0 size=   24320kB time=00:03:35.32 bitrate= 925.2kbits/s speed=1.01x    frame= 3245 fps= 15 q=-1.0 size=   24320kB time=00:03:35.84 bitrate= 923.0kbits/s speed=1.01x    frame= 3253 fps= 15 q=-1.0 size=   24576kB time=00:03:36.36 bitrate= 930.5kbits/s speed=1.01x    frame= 3261 fps= 15 q=-1.0 size=   24576kB time=00:03:36.92 bitrate= 928.1kbits/s speed=1.01x    frame= 3269 fps= 15 q=-1.0 size=   24576kB time=00:03:37.44 bitrate= 925.9kbits/s speed=1.01x    frame= 3277 fps= 15 q=-1.0 size=   24576kB time=00:03:37.96 bitrate= 923.7kbits/s speed=1.01x    frame= 3285 fps= 15 q=-1.0 size=   24832kB time=00:03:38.52 bitrate= 930.9kbits/s speed=1.01x    frame= 3293 fps= 15 q=-1.0 size=   24832kB time=00:03:39.04 bitrate= 928.7kbits/s speed=1.01x    frame= 3301 fps= 15 q=-1.0 size=   24832kB time=00:03:39.56 bitrate= 926.5kbits/s speed=1.01x    frame= 3309 fps= 15 q=-1.0 size=   24832kB time=00:03:40.12 bitrate= 924.1kbits/s speed=1.01x    frame= 3317 fps= 15 q=-1.0 size=   25088kB time=00:03:40.64 bitrate= 931.5kbits/s speed=1.01x    frame= 3325 fps= 15 q=-1.0 size=   25088kB time=00:03:41.16 bitrate= 929.3kbits/s speed=1.01x    frame= 3333 fps= 15 q=-1.0 size=   25088kB time=00:03:41.72 bitrate= 926.9kbits/s speed=1.01x    frame= 3341 fps= 15 q=-1.0 size=   25088kB time=00:03:42.24 bitrate= 924.8kbits/s speed=1.01x    frame= 3349 fps= 15 q=-1.0 size=   25344kB time=00:03:42.76 bitrate= 932.0kbits/s speed=1.01x    frame= 3357 fps= 15 q=-1.0 size=   25344kB time=00:03:43.32 bitrate= 929.7kbits/s speed=1.01x    frame= 3365 fps= 15 q=-1.0 size=   25344kB time=00:03:43.84 bitrate= 927.5kbits/s speed=1.01x    frame= 3373 fps= 15 q=-1.0 size=   25344kB time=00:03:44.36 bitrate= 925.4kbits/s speed=1.01x    frame= 3381 fps= 15 q=-1.0 size=   25600kB time=00:03:44.92 bitrate= 932.4kbits/s speed=1.01x    frame= 3389 fps= 15 q=-1.0 size=   25600kB time=00:03:45.44 bitrate= 930.2kbits/s speed=1.01x    frame= 3397 fps= 15 q=-1.0 size=   25600kB time=00:03:45.96 bitrate= 928.1kbits/s speed=1.01x    frame= 3405 fps= 15 q=-1.0 size=   25600kB time=00:03:46.52 bitrate= 925.8kbits/s speed=1.01x    frame= 3413 fps= 15 q=-1.0 size=   25600kB time=00:03:47.04 bitrate= 923.7kbits/s speed=1.01x    frame= 3421 fps= 15 q=-1.0 size=   25856kB time=00:03:47.56 bitrate= 930.8kbits/s speed=1.01x    frame= 3429 fps= 15 q=-1.0 size=   25856kB time=00:03:48.12 bitrate= 928.5kbits/s speed=1.01x    frame= 3437 fps= 15 q=-1.0 size=   25856kB time=00:03:48.64 bitrate= 926.4kbits/s speed=1.01x    frame= 3445 fps= 15 q=-1.0 size=   25856kB time=00:03:49.16 bitrate= 924.3kbits/s speed=1.01x    frame= 3453 fps= 15 q=-1.0 size=   26112kB time=00:03:49.72 bitrate= 931.2kbits/s speed=1.01x    frame= 3461 fps= 15 q=-1.0 size=   26112kB time=00:03:50.24 bitrate= 929.1kbits/s speed=1.01x    frame= 3469 fps= 15 q=-1.0 size=   26112kB time=00:03:50.76 bitrate= 927.0kbits/s speed=1.01x    frame= 3477 fps= 15 q=-1.0 size=   26112kB time=00:03:51.32 bitrate= 924.7kbits/s speed=1.01x    frame= 3485 fps= 15 q=-1.0 size=   26368kB time=00:03:51.84 bitrate= 931.7kbits/s speed=1.01x    frame= 3493 fps= 15 q=-1.0 size=   26368kB time=00:03:52.36 bitrate= 929.6kbits/s speed=1.01x    frame= 3501 fps= 15 q=-1.0 size=   26368kB time=00:03:52.92 bitrate= 927.4kbits/s speed=1.01x    frame= 3509 fps= 15 q=-1.0 size=   26368kB time=00:03:53.44 bitrate= 925.3kbits/s speed=1.01x    frame= 3517 fps= 15 q=-1.0 size=   26624kB time=00:03:53.96 bitrate= 932.2kbits/s speed=1.01x    frame= 3525 fps= 15 q=-1.0 size=   26624kB time=00:03:54.52 bitrate= 930.0kbits/s speed=1.01x    frame= 3533 fps= 15 q=-1.0 size=   26624kB time=00:03:55.04 bitrate= 927.9kbits/s speed=1.01x    frame= 3541 fps= 15 q=-1.0 size=   26624kB time=00:03:55.56 bitrate= 925.9kbits/s speed=1.01x    frame= 3549 fps= 15 q=-1.0 size=   26624kB time=00:03:56.12 bitrate= 923.7kbits/s speed=1.01x    frame= 3557 fps= 15 q=-1.0 size=   26880kB time=00:03:56.64 bitrate= 930.5kbits/s speed=1.01x    frame= 3565 fps= 15 q=-1.0 size=   26880kB time=00:03:57.16 bitrate= 928.5kbits/s speed=1.01x    frame= 3573 fps= 15 q=-1.0 size=   26880kB time=00:03:57.72 bitrate= 926.3kbits/s speed=1.01x    frame= 3581 fps= 15 q=-1.0 size=   26880kB time=00:03:58.24 bitrate= 924.3kbits/s speed=1.01x    frame= 3589 fps= 15 q=-1.0 size=   27136kB time=00:03:58.76 bitrate= 931.0kbits/s speed=1.01x    frame= 3597 fps= 15 q=-1.0 size=   27136kB time=00:03:59.32 bitrate= 928.9kbits/s speed=1.01x    frame= 3605 fps= 15 q=-1.0 size=   27136kB time=00:03:59.84 bitrate= 926.9kbits/s speed=1.01x    frame= 3613 fps= 15 q=-1.0 size=   27136kB time=00:04:00.36 bitrate= 924.8kbits/s speed=1.01x    frame= 3621 fps= 15 q=-1.0 size=   27392kB time=00:04:00.92 bitrate= 931.4kbits/s speed=1.01x    frame= 3629 fps= 15 q=-1.0 size=   27392kB time=00:04:01.44 bitrate= 929.4kbits/s speed=1.01x    frame= 3637 fps= 15 q=-1.0 size=   27392kB time=00:04:01.96 bitrate= 927.4kbits/s speed=1.01x    frame= 3645 fps= 15 q=-1.0 size=   27392kB time=00:04:02.52 bitrate= 925.3kbits/s speed=1.01x    frame= 3653 fps= 15 q=-1.0 size=   27648kB time=00:04:03.04 bitrate= 931.9kbits/s speed=1.01x    frame= 3661 fps= 15 q=-1.0 size=   27648kB time=00:04:03.56 bitrate= 929.9kbits/s speed=1.01x    frame= 3669 fps= 15 q=-1.0 size=   27648kB time=00:04:04.12 bitrate= 927.8kbits/s speed=1.01x    frame= 3677 fps= 15 q=-1.0 size=   27648kB time=00:04:04.64 bitrate= 925.8kbits/s speed=1.01x    frame= 3685 fps= 15 q=-1.0 size=   27904kB time=00:04:05.16 bitrate= 932.4kbits/s speed=1.01x    frame= 3693 fps= 15 q=-1.0 size=   27904kB time=00:04:05.72 bitrate= 930.3kbits/s speed=1.01x    frame= 3701 fps= 15 q=-1.0 size=   27904kB time=00:04:06.24 bitrate= 928.3kbits/s speed=1.01x    frame= 3709 fps= 15 q=-1.0 size=   27904kB time=00:04:06.76 bitrate= 926.4kbits/s speed=1.01x    frame= 3717 fps= 15 q=-1.0 size=   28160kB time=00:04:07.32 bitrate= 932.7kbits/s speed=1.01x    frame= 3725 fps= 15 q=-1.0 size=   28160kB time=00:04:07.84 bitrate= 930.8kbits/s speed=1.01x    frame= 3733 fps= 15 q=-1.0 size=   28160kB time=00:04:08.36 bitrate= 928.8kbits/s speed=1.01x    frame= 3741 fps= 15 q=-1.0 size=   28160kB time=00:04:08.92 bitrate= 926.7kbits/s speed=1.01x    frame= 3749 fps= 15 q=-1.0 size=   28160kB time=00:04:09.44 bitrate= 924.8kbits/s speed=1.01x    frame= 3757 fps= 15 q=-1.0 size=   28416kB time=00:04:09.96 bitrate= 931.3kbits/s speed=1.01x    frame= 3765 fps= 15 q=-1.0 size=   28416kB time=00:04:10.52 bitrate= 929.2kbits/s speed=1.01x    frame= 3773 fps= 15 q=-1.0 size=   28416kB time=00:04:11.04 bitrate= 927.3kbits/s speed=1.01x    frame= 3781 fps= 15 q=-1.0 size=   28416kB time=00:04:11.56 bitrate= 925.4kbits/s speed=1.01x    frame= 3789 fps= 15 q=-1.0 size=   28672kB time=00:04:12.12 bitrate= 931.6kbits/s speed=1.01x    frame= 3797 fps= 15 q=-1.0 size=   28672kB time=00:04:12.64 bitrate= 929.7kbits/s speed=1.01x    frame= 3805 fps= 15 q=-1.0 size=   28672kB time=00:04:13.16 bitrate= 927.8kbits/s speed=1.01x    frame= 3813 fps= 15 q=-1.0 size=   28672kB time=00:04:13.72 bitrate= 925.7kbits/s speed=1.01x    frame= 3821 fps= 15 q=-1.0 size=   28928kB time=00:04:14.24 bitrate= 932.1kbits/s speed=1.01x    frame= 3829 fps= 15 q=-1.0 size=   28928kB time=00:04:14.76 bitrate= 930.2kbits/s speed=1.01x    frame= 3837 fps= 15 q=-1.0 size=   28928kB time=00:04:15.32 bitrate= 928.2kbits/s speed=1.01x    frame= 3845 fps= 15 q=-1.0 size=   28928kB time=00:04:15.84 bitrate= 926.3kbits/s speed=1.01x    frame= 3853 fps= 15 q=-1.0 size=   29184kB time=00:04:16.36 bitrate= 932.6kbits/s speed=1.01x    frame= 3861 fps= 15 q=-1.0 size=   29184kB time=00:04:16.92 bitrate= 930.5kbits/s speed=1.01x    frame= 3869 fps= 15 q=-1.0 size=   29184kB time=00:04:17.44 bitrate= 928.7kbits/s speed=1.01x    frame= 3877 fps= 15 q=-1.0 size=   29184kB time=00:04:17.96 bitrate= 926.8kbits/s speed=1.01x    frame= 3885 fps= 15 q=-1.0 size=   29440kB time=00:04:18.52 bitrate= 932.9kbits/s speed=1.01x    frame= 3893 fps= 15 q=-1.0 size=   29440kB time=00:04:19.04 bitrate= 931.0kbits/s speed=1.01x    frame= 3901 fps= 15 q=-1.0 size=   29440kB time=00:04:19.56 bitrate= 929.2kbits/s speed=1.01x    frame= 3909 fps= 15 q=-1.0 size=   29440kB time=00:04:20.12 bitrate= 927.2kbits/s speed=1.01x    frame= 3917 fps= 15 q=-1.0 size=   29440kB time=00:04:20.64 bitrate= 925.3kbits/s speed=1.01x    frame= 3925 fps= 15 q=-1.0 size=   29696kB time=00:04:21.16 bitrate= 931.5kbits/s speed=1.01x    frame= 3933 fps= 15 q=-1.0 size=   29696kB time=00:04:21.72 bitrate= 929.5kbits/s speed=1.01x    frame= 3941 fps= 15 q=-1.0 size=   29696kB time=00:04:22.24 bitrate= 927.7kbits/s speed=1.01x    frame= 3949 fps= 15 q=-1.0 size=   29696kB time=00:04:22.76 bitrate= 925.8kbits/s speed=1.01x    frame= 3957 fps= 15 q=-1.0 size=   29952kB time=00:04:23.32 bitrate= 931.8kbits/s speed=1.01x    frame= 3965 fps= 15 q=-1.0 size=   29952kB time=00:04:23.84 bitrate= 930.0kbits/s speed=1.01x    frame= 3973 fps= 15 q=-1.0 size=   29952kB time=00:04:24.36 bitrate= 928.2kbits/s speed=1.01x    frame= 3981 fps= 15 q=-1.0 size=   29952kB time=00:04:24.92 bitrate= 926.2kbits/s speed=1.01x    frame= 3989 fps= 15 q=-1.0 size=   30208kB time=00:04:25.44 bitrate= 932.3kbits/s speed=1.01x    frame= 3997 fps= 15 q=-1.0 size=   30208kB time=00:04:25.96 bitrate= 930.5kbits/s speed=1.01x    frame= 4005 fps= 15 q=-1.0 size=   30208kB time=00:04:26.52 bitrate= 928.5kbits/s speed=1.01x    frame= 4013 fps= 15 q=-1.0 size=   30208kB time=00:04:27.03 bitrate= 926.7kbits/s speed=1.01x    frame= 4021 fps= 15 q=-1.0 size=   30208kB time=00:04:27.55 bitrate= 924.9kbits/s speed=1.01x    frame= 4029 fps= 15 q=-1.0 size=   30464kB time=00:04:28.11 bitrate= 930.8kbits/s speed=1.01x    frame= 4037 fps= 15 q=-1.0 size=   30464kB time=00:04:28.63 bitrate= 929.0kbits/s speed=1.01x    frame= 4045 fps= 15 q=-1.0 size=   30464kB time=00:04:29.15 bitrate= 927.2kbits/s speed=1.01x    frame= 4053 fps= 15 q=-1.0 size=   30464kB time=00:04:29.71 bitrate= 925.3kbits/s speed=1.01x    frame= 4061 fps= 15 q=-1.0 size=   30720kB time=00:04:30.23 bitrate= 931.2kbits/s speed=1.01x    frame= 4069 fps= 15 q=-1.0 size=   30720kB time=00:04:30.75 bitrate= 929.5kbits/s speed=1.01x    frame= 4077 fps= 15 q=-1.0 size=   30720kB time=00:04:31.31 bitrate= 927.5kbits/s speed=1.01x    frame= 4085 fps= 15 q=-1.0 size=   30720kB time=00:04:31.83 bitrate= 925.8kbits/s speed=1.01x    frame= 4093 fps= 15 q=-1.0 size=   30976kB time=00:04:32.35 bitrate= 931.7kbits/s speed=1.01x    frame= 4101 fps= 15 q=-1.0 size=   30976kB time=00:04:32.91 bitrate= 929.8kbits/s speed=1.01x    frame= 4109 fps= 15 q=-1.0 size=   30976kB time=00:04:33.43 bitrate= 928.0kbits/s speed=1.01x    frame= 4117 fps= 15 q=-1.0 size=   30976kB time=00:04:33.95 bitrate= 926.3kbits/s speed=1.01x    frame= 4125 fps= 15 q=-1.0 size=   30976kB time=00:04:34.51 bitrate= 924.4kbits/s speed=1.01x    frame= 4133 fps= 15 q=-1.0 size=   31232kB time=00:04:35.03 bitrate= 930.2kbits/s speed=1.01x    frame= 4141 fps= 15 q=-1.0 size=   31232kB time=00:04:35.55 bitrate= 928.5kbits/s speed=1.01x    frame= 4149 fps= 15 q=-1.0 size=   31232kB time=00:04:36.11 bitrate= 926.6kbits/s speed=1.01x    frame= 4157 fps= 15 q=-1.0 size=   31232kB time=00:04:36.63 bitrate= 924.9kbits/s speed=1.01x    frame= 4165 fps= 15 q=-1.0 size=   31488kB time=00:04:37.15 bitrate= 930.7kbits/s speed=1.01x    frame= 4173 fps= 15 q=-1.0 size=   31488kB time=00:04:37.71 bitrate= 928.8kbits/s speed=1.01x    frame= 4181 fps= 15 q=-1.0 size=   31488kB time=00:04:38.23 bitrate= 927.1kbits/s speed=1.01x    frame= 4189 fps= 15 q=-1.0 size=   31488kB time=00:04:38.75 bitrate= 925.4kbits/s speed=1.01x    frame= 4197 fps= 15 q=-1.0 size=   31744kB time=00:04:39.31 bitrate= 931.0kbits/s speed=1.01x    frame= 4205 fps= 15 q=-1.0 size=   31744kB time=00:04:39.83 bitrate= 929.3kbits/s speed=1.01x    frame= 4213 fps= 15 q=-1.0 size=   31744kB time=00:04:40.35 bitrate= 927.6kbits/s speed=1.01x    frame= 4221 fps= 15 q=-1.0 size=   31744kB time=00:04:40.91 bitrate= 925.7kbits/s speed=1.01x    frame= 4229 fps= 15 q=-1.0 size=   32000kB time=00:04:41.43 bitrate= 931.4kbits/s speed=1.01x    frame= 4237 fps= 15 q=-1.0 size=   32000kB time=00:04:41.95 bitrate= 929.7kbits/s speed=1.01x    frame= 4245 fps= 15 q=-1.0 size=   32000kB time=00:04:42.51 bitrate= 927.9kbits/s speed=1.01x    frame= 4253 fps= 15 q=-1.0 size=   32000kB time=00:04:43.03 bitrate= 926.2kbits/s speed=1.01x    frame= 4261 fps= 15 q=-1.0 size=   32256kB time=00:04:43.55 bitrate= 931.9kbits/s speed=1.01x    frame= 4269 fps= 15 q=-1.0 size=   32256kB time=00:04:44.11 bitrate= 930.0kbits/s speed=1.01x    frame= 4277 fps= 15 q=-1.0 size=   32256kB time=00:04:44.63 bitrate= 928.3kbits/s speed=1.01x    frame= 4285 fps= 15 q=-1.0 size=   32256kB time=00:04:45.15 bitrate= 926.6kbits/s speed=1.01x    frame= 4293 fps= 15 q=-1.0 size=   32256kB time=00:04:45.71 bitrate= 924.8kbits/s speed=1.01x    frame= 4301 fps= 15 q=-1.0 size=   32512kB time=00:04:46.23 bitrate= 930.5kbits/s speed=1.01x    frame= 4309 fps= 15 q=-1.0 size=   32512kB time=00:04:46.75 bitrate= 928.8kbits/s speed=1.01x    frame= 4317 fps= 15 q=-1.0 size=   32512kB time=00:04:47.31 bitrate= 927.0kbits/s speed=1.01x    frame= 4325 fps= 15 q=-1.0 size=   32512kB time=00:04:47.83 bitrate= 925.3kbits/s speed=1.01x    frame= 4333 fps= 15 q=-1.0 size=   32768kB time=00:04:48.35 bitrate= 930.9kbits/s speed=1.01x    frame= 4341 fps= 15 q=-1.0 size=   32768kB time=00:04:48.91 bitrate= 929.1kbits/s speed=1.01x    frame= 4349 fps= 15 q=-1.0 size=   32768kB time=00:04:49.43 bitrate= 927.4kbits/s speed=1.01x    frame= 4357 fps= 15 q=-1.0 size=   32768kB time=00:04:49.95 bitrate= 925.8kbits/s speed=1.01x    frame= 4365 fps= 15 q=-1.0 size=   32768kB time=00:04:50.51 bitrate= 924.0kbits/s speed=1.01x    frame= 4373 fps= 15 q=-1.0 size=   33024kB time=00:04:51.03 bitrate= 929.5kbits/s speed=1.01x    frame= 4381 fps= 15 q=-1.0 size=   33024kB time=00:04:51.55 bitrate= 927.9kbits/s speed=1.01x    frame= 4389 fps= 15 q=-1.0 size=   33024kB time=00:04:52.11 bitrate= 926.1kbits/s speed=1.01x    frame= 4397 fps= 15 q=-1.0 size=   33024kB time=00:04:52.63 bitrate= 924.5kbits/s speed=1.01x    frame= 4405 fps= 15 q=-1.0 size=   33280kB time=00:04:53.15 bitrate= 930.0kbits/s speed=1.01x    frame= 4413 fps= 15 q=-1.0 size=   33280kB time=00:04:53.71 bitrate= 928.2kbits/s speed=1.01x    frame= 4421 fps= 15 q=-1.0 size=   33280kB time=00:04:54.23 bitrate= 926.6kbits/s speed=1.01x    frame= 4429 fps= 15 q=-1.0 size=   33280kB time=00:04:54.75 bitrate= 924.9kbits/s speed=1.01x    frame= 4437 fps= 15 q=-1.0 size=   33536kB time=00:04:55.31 bitrate= 930.3kbits/s speed=1.01x    frame= 4445 fps= 15 q=-1.0 size=   33536kB time=00:04:55.83 bitrate= 928.6kbits/s speed=1.01x    frame= 4453 fps= 15 q=-1.0 size=   33536kB time=00:04:56.35 bitrate= 927.0kbits/s speed=1.01x    frame= 4461 fps= 15 q=-1.0 size=   33536kB time=00:04:56.91 bitrate= 925.3kbits/s speed=1.01x    frame= 4469 fps= 15 q=-1.0 size=   33792kB time=00:04:57.43 bitrate= 930.7kbits/s speed=1.01x    frame= 4477 fps= 15 q=-1.0 size=   33792kB time=00:04:57.95 bitrate= 929.1kbits/s speed=1.01x    frame= 4485 fps= 15 q=-1.0 size=   33792kB time=00:04:58.51 bitrate= 927.3kbits/s speed=1.01x    frame= 4493 fps= 15 q=-1.0 size=   33792kB time=00:04:59.03 bitrate= 925.7kbits/s speed=1.01x    frame= 4501 fps= 15 q=-1.0 size=   33792kB time=00:04:59.55 bitrate= 924.1kbits/s speed=1.01x    frame= 4509 fps= 15 q=-1.0 size=   34048kB time=00:05:00.11 bitrate= 929.4kbits/s speed=1.01x    frame= 4517 fps= 15 q=-1.0 size=   34048kB time=00:05:00.63 bitrate= 927.8kbits/s speed=1.01x    frame= 4525 fps= 15 q=-1.0 size=   34048kB time=00:05:01.15 bitrate= 926.2kbits/s speed=1.01x    frame= 4533 fps= 15 q=-1.0 size=   34048kB time=00:05:01.71 bitrate= 924.4kbits/s speed=1.01x    frame= 4541 fps= 15 q=-1.0 size=   34304kB time=00:05:02.23 bitrate= 929.8kbits/s speed=1.01x    frame= 4549 fps= 15 q=-1.0 size=   34304kB time=00:05:02.75 bitrate= 928.2kbits/s speed=1.01x    frame= 4557 fps= 15 q=-1.0 size=   34304kB time=00:05:03.31 bitrate= 926.5kbits/s speed=1.01x    frame= 4565 fps= 15 q=-1.0 size=   34304kB time=00:05:03.83 bitrate= 924.9kbits/s speed=1.01x    frame= 4573 fps= 15 q=-1.0 size=   34560kB time=00:05:04.35 bitrate= 930.2kbits/s speed=1.01x    frame= 4581 fps= 15 q=-1.0 size=   34560kB time=00:05:04.91 bitrate= 928.5kbits/s speed=1.01x    frame= 4589 fps= 15 q=-1.0 size=   34560kB time=00:05:05.43 bitrate= 926.9kbits/s speed=1.01x    frame= 4597 fps= 15 q=-1.0 size=   34560kB time=00:05:05.95 bitrate= 925.3kbits/s speed=1.01x    frame= 4605 fps= 15 q=-1.0 size=   34816kB time=00:05:06.51 bitrate= 930.5kbits/s speed=1.01x    frame= 4613 fps= 15 q=-1.0 size=   34816kB time=00:05:07.03 bitrate= 928.9kbits/s speed=1.01x    frame= 4621 fps= 15 q=-1.0 size=   34816kB time=00:05:07.55 bitrate= 927.4kbits/s speed=1.01x    frame= 4629 fps= 15 q=-1.0 size=   34816kB time=00:05:08.11 bitrate= 925.7kbits/s speed=1.01x    frame= 4637 fps= 15 q=-1.0 size=   34816kB time=00:05:08.63 bitrate= 924.1kbits/s speed=1.01x    frame= 4645 fps= 15 q=-1.0 size=   35072kB time=00:05:09.15 bitrate= 929.3kbits/s speed=1.01x    frame= 4653 fps= 15 q=-1.0 size=   35072kB time=00:05:09.71 bitrate= 927.7kbits/s speed=1.01x    frame= 4661 fps= 15 q=-1.0 size=   35072kB time=00:05:10.23 bitrate= 926.1kbits/s speed=1.01x    frame= 4669 fps= 15 q=-1.0 size=   35072kB time=00:05:10.75 bitrate= 924.6kbits/s speed=1.01x    frame= 4677 fps= 15 q=-1.0 size=   35328kB time=00:05:11.31 bitrate= 929.6kbits/s speed=1.01x    frame= 4685 fps= 15 q=-1.0 size=   35328kB time=00:05:11.83 bitrate= 928.1kbits/s speed=1.01x    frame= 4693 fps= 15 q=-1.0 size=   35328kB time=00:05:12.35 bitrate= 926.5kbits/s speed=1.01x    frame= 4701 fps= 15 q=-1.0 size=   35328kB time=00:05:12.91 bitrate= 924.9kbits/s speed=1.01x    frame= 4709 fps= 15 q=-1.0 size=   35584kB time=00:05:13.43 bitrate= 930.0kbits/s speed=1.01x    frame= 4717 fps= 15 q=-1.0 size=   35584kB time=00:05:13.95 bitrate= 928.5kbits/s speed=1.01x    frame= 4725 fps= 15 q=-1.0 size=   35584kB time=00:05:14.51 bitrate= 926.8kbits/s speed=1.01x    frame= 4733 fps= 15 q=-1.0 size=   35584kB time=00:05:15.03 bitrate= 925.3kbits/s speed=1.01x    frame= 4741 fps= 15 q=-1.0 size=   35584kB time=00:05:15.55 bitrate= 923.8kbits/s speed=1.01x    frame= 4749 fps= 15 q=-1.0 size=   35840kB time=00:05:16.11 bitrate= 928.8kbits/s speed=1.01x    frame= 4757 fps= 15 q=-1.0 size=   35840kB time=00:05:16.63 bitrate= 927.3kbits/s speed=1.01x    frame= 4765 fps= 15 q=-1.0 size=   35840kB time=00:05:17.15 bitrate= 925.7kbits/s speed=1.01x    frame= 4773 fps= 15 q=-1.0 size=   35840kB time=00:05:17.71 bitrate= 924.1kbits/s speed=1.01x    frame= 4781 fps= 15 q=-1.0 size=   36096kB time=00:05:18.23 bitrate= 929.2kbits/s speed=1.01x    frame= 4789 fps= 15 q=-1.0 size=   36096kB time=00:05:18.75 bitrate= 927.7kbits/s speed=1.01x    frame= 4797 fps= 15 q=-1.0 size=   36096kB time=00:05:19.31 bitrate= 926.0kbits/s speed=1.01x    frame= 4805 fps= 15 q=-1.0 size=   36096kB time=00:05:19.83 bitrate= 924.5kbits/s speed=1.01x    frame= 4813 fps= 15 q=-1.0 size=   36352kB time=00:05:20.35 bitrate= 929.6kbits/s speed=1.01x    frame= 4821 fps= 15 q=-1.0 size=   36352kB time=00:05:20.91 bitrate= 928.0kbits/s speed=1.01x    frame= 4829 fps= 15 q=-1.0 size=   36352kB time=00:05:21.43 bitrate= 926.5kbits/s speed=1.01x    frame= 4837 fps= 15 q=-1.0 size=   36352kB time=00:05:21.95 bitrate= 925.0kbits/s speed=1.01x    frame= 4845 fps= 15 q=-1.0 size=   36352kB time=00:05:22.51 bitrate= 923.4kbits/s speed=1.01x    frame= 4853 fps= 15 q=-1.0 size=   36608kB time=00:05:23.03 bitrate= 928.4kbits/s speed=1.01x    frame= 4861 fps= 15 q=-1.0 size=   36608kB time=00:05:23.55 bitrate= 926.9kbits/s speed=1.01x    frame= 4869 fps= 15 q=-1.0 size=   36608kB time=00:05:24.11 bitrate= 925.3kbits/s speed=1.01x    frame= 4877 fps= 15 q=-1.0 size=   36608kB time=00:05:24.63 bitrate= 923.8kbits/s speed=1.01x    frame= 4885 fps= 15 q=-1.0 size=   36864kB time=00:05:25.15 bitrate= 928.8kbits/s speed=1.01x    frame= 4893 fps= 15 q=-1.0 size=   36864kB time=00:05:25.71 bitrate= 927.2kbits/s speed=1.01x    frame= 4901 fps= 15 q=-1.0 size=   36864kB time=00:05:26.23 bitrate= 925.7kbits/s speed=1.01x    frame= 4909 fps= 15 q=-1.0 size=   36864kB time=00:05:26.75 bitrate= 924.2kbits/s speed=1.01x    frame= 4917 fps= 15 q=-1.0 size=   37120kB time=00:05:27.31 bitrate= 929.0kbits/s speed=1.01x    frame= 4925 fps= 15 q=-1.0 size=   37120kB time=00:05:27.83 bitrate= 927.6kbits/s speed=1.01x    frame= 4933 fps= 15 q=-1.0 size=   37120kB time=00:05:28.35 bitrate= 926.1kbits/s speed=1.01x    frame= 4941 fps= 15 q=-1.0 size=   37120kB time=00:05:28.91 bitrate= 924.5kbits/s speed=1.01x    frame= 4949 fps= 15 q=-1.0 size=   37120kB time=00:05:29.43 bitrate= 923.1kbits/s speed=1.01x    frame= 4957 fps= 15 q=-1.0 size=   37376kB time=00:05:29.95 bitrate= 928.0kbits/s speed=1.01x    frame= 4965 fps= 15 q=-1.0 size=   37376kB time=00:05:30.51 bitrate= 926.4kbits/s speed=1.01x    frame= 4973 fps= 15 q=-1.0 size=   37376kB time=00:05:31.03 bitrate= 924.9kbits/s speed=1.01x    frame= 4981 fps= 15 q=-1.0 size=   37376kB time=00:05:31.55 bitrate= 923.5kbits/s speed=1.01x    frame= 4989 fps= 15 q=-1.0 size=   37632kB time=00:05:32.11 bitrate= 928.2kbits/s speed=1.01x    frame= 4997 fps= 15 q=-1.0 size=   37632kB time=00:05:32.63 bitrate= 926.8kbits/s speed=1.01x    frame= 5005 fps= 15 q=-1.0 size=   37632kB time=00:05:33.15 bitrate= 925.3kbits/s speed=1.01x    